# xmcd
#
# Track frame offsets:
# 150
# 19444
# 42057
# 58363
# 75537
# 92100
# 109862
# 137988
# 160634
# 184446
# 206965
# 227518
# 253206
# 265186
#
# Disc length: 3646 seconds
#
# Revision: 0
# Processed by: cddbd v1.4PL0 Copyright (c) Steve Scherf et al.
# Submitted via: Audion 3.0.2 (http://www.panic.com/audion/)
#
DISCID=cb0e3c0e
DTITLE=hard rock mix - dfd
DYEAR=1900
DGENRE=
TTITLE0=lgili
TTITLE1=iiug
TTITLE2=ilgi
TTITLE3=oigi
TTITLE4=igi
TTITLE5=liuoiu
TTITLE6=iuiouy
TTITLE7=oiuiuy
TTITLE8=oiuyiou
TTITLE9=oiuyiyu
TTITLE10=oiuyiu
TTITLE11=iuyyiu
TTITLE12=iuyiu
TTITLE13=iuiyu
EXTD=
EXTT0=
EXTT1=
EXTT2=
EXTT3=
EXTT4=
EXTT5=
EXTT6=
EXTT7=
EXTT8=
EXTT9=
EXTT10=
EXTT11=
EXTT12=
EXTT13=
PLAYORDER=
